<svg xmlns="http://www.w3.org/2000/svg" width="20" height="20" viewBox="0 0 20 20">
    <path fill="#303236" fill-rule="nonzero" d="M6.237.732A9.94 9.94 0 0 0 2.93 2.929 9.97 9.97 0 0 0 0 10a9.965 9.965 0 0 0 2.93 7.07A9.957 9.957 0 0 0 10 20a9.972 9.972 0 0 0 7.071-2.929A9.964 9.964 0 0 0 20 10.001a9.975 9.975 0 0 0-2.929-7.072A9.972 9.972 0 0 0 10 0a9.973 9.973 0 0 0-3.763.732zM2.5 14.21a6.864 6.864 0 0 1-1.318-1.06 9.428 9.428 0 0 1-.304-5.254c.187-.37.4-.723.64-1.063.075-.105.143-.214.223-.315l2.257 1.335v.057a17.384 17.384 0 0 0 .362 3.606l.003.013-1.75 2.745a1.38 1.38 0 0 1-.113-.064zm6.71 4.64c.39.198.79.366 1.202.502a9.378 9.378 0 0 1-5.074-1.229l3.783.674c.029.019.058.036.09.052zm-.014-.684l-4.464-.795a13.94 13.94 0 0 1-1.396-2.023c-.102-.182-.217-.36-.304-.55l1.748-2.741.131.033c1.094.292 2.207.5 3.328.664.065.009.12.017.167.022L10.5 16.4a80.33 80.33 0 0 1-1.108 1.522 4.337 4.337 0 0 1-.198.244zm7.428-1.543a9.302 9.302 0 0 1-1.128.962 8.57 8.57 0 0 0-.338-1.538l2.236-4.172c.616-.28 1.21-.598 1.762-.993a.788.788 0 0 0 .179-.17 9.319 9.319 0 0 1-2.711 5.91zm-.1-5.41c.084.158.166.318.248.48l-2.16 4.03-.037.007a19.702 19.702 0 0 1-3.531.34l-2.156-3.728c.336-.623.668-1.248.998-1.874.224-.424.444-.851.663-1.278l4.462-.458c.546.801 1.064 1.62 1.513 2.48zm-.905-4.78c-.211.559-.438 1.112-.663 1.666l-4.346.447a3.545 3.545 0 0 0-.163-.2c-.513-.582-1.03-1.16-1.545-1.739l.014-.015-.625-.624L9.5 2.325c.084-.022.168-.04.253-.05.657-.066 1.316-.142 1.975-.18a9.61 9.61 0 0 1 1.22-.007l2.994 3.374c-.103.326-.204.652-.324.97zm1.005-3.056a9.325 9.325 0 0 1 1.917 2.777 9.506 9.506 0 0 0-1.786-.96 5.366 5.366 0 0 0-.3-.111l-2.947-3.32c.02-.144.032-.288.036-.433a9.321 9.321 0 0 1 3.08 2.047zM7 1.156c.012.008.017.015.024.017a7.49 7.49 0 0 1 1.864.982L7.759 5.56a.121.121 0 0 0-.018.006c-.23.096-.467.181-.694.285-.938.426-1.853.899-2.715 1.465l-2.23-1.32a.674.674 0 0 1 .039-.203c.15-.4.297-.8.466-1.191.13-.302.28-.593.441-.877a9.31 9.31 0 0 1 3.973-2.602.651.651 0 0 0-.02.034z"/>
</svg>
