<svg xmlns="http://www.w3.org/2000/svg" width="22" height="22" viewBox="0 0 22 22">
    <g fill="none" fill-rule="evenodd">
        <g>
            <g transform="translate(-342 -14) translate(342 14)">
                <path fill="#FFF" fill-rule="nonzero" d="M22 11c0-6.08-4.92-11-11-11S0 4.92 0 11c0 6.026 4.879 11 11 11 6.096 0 11-4.947 11-11zM11 1.29c5.355 0 9.71 4.355 9.71 9.71 0 1.959-.582 3.842-1.662 5.436-4.339-4.667-11.75-4.675-16.096 0C1.872 14.842 1.29 12.96 1.29 11c0-5.355 4.356-9.71 9.711-9.71zM3.756 17.466c3.858-4.327 10.631-4.326 14.488 0-3.87 4.33-10.616 4.331-14.488 0z"/>
                <circle cx="11.043" cy="7.09" r="3.754" stroke="#FFF"/>
            </g>
        </g>
    </g>
</svg>
